<?xml version="1.0" encoding="UTF-8" standalone="no"?><!-- Generator: Gravit.io --><svg xmlns="http://www.w3.org/2000/svg" xmlns:xlink="http://www.w3.org/1999/xlink" style="isolation:isolate" viewBox="0 0 547.333 668.333" width="547.333pt" height="668.333pt"><defs><clipPath id="_clipPath_qnGnn7w7hwxsOzYQAFHDwY10cuH6gRNH"><rect width="547.333" height="668.333"/></clipPath></defs><g clip-path="url(#_clipPath_qnGnn7w7hwxsOzYQAFHDwY10cuH6gRNH)"><rect x="132.5" y="90.167" width="278" height="488" transform="matrix(1,0,0,1,0,0)" fill="rgb(255,255,255)"/><path d=" M 251 502 L 207 502 L 207 548.667 L 252.667 548.667 L 252.667 569.667 L 300.333 569.667 L 300.333 339.333 C 352.058 327.081 388.773 281.153 389.333 228 C 389.188 168.026 342.598 118.42 282.751 114.518 C 222.903 110.616 170.267 153.752 162.335 213.2 C 154.403 272.648 193.89 328.075 252.667 340 L 252.667 410.667 L 182.333 410.667 L 182.333 457.333 L 251 457.333 L 251 502 Z  M 273.667 0 L 547.333 114 L 547.333 301.667 C 547.333 470.333 430.667 628.333 273.667 668.333 C 116.667 630 0 472 0 303.333 L 0 114 L 273.667 0 Z  M 273.667 166.667 C 303.666 166.537 329.549 187.685 335.401 217.108 C 341.253 246.531 325.432 275.974 297.667 287.333 C 274.269 296.906 247.411 291.482 229.561 273.58 C 211.712 255.678 206.367 228.804 216.007 205.434 C 225.648 182.065 248.387 166.776 273.667 166.667 Z " fill-rule="evenodd" fill="rgb(102,157,246)"/><path d=" M 273.667 569.667 L 298.667 569.667 L 298.667 339.333 C 350.391 327.081 387.107 281.153 387.667 228 C 387.667 197.765 375.656 168.769 354.277 147.39 C 332.898 126.011 303.901 114 273.667 114 L 273.667 0 L 547.333 114 L 547.333 301.667 C 547.333 470.333 430.667 628.333 273.667 668.333 L 273.667 569.667 Z  M 273.667 166.667 C 303.666 166.537 329.549 187.685 335.401 217.108 C 341.253 246.531 325.432 275.974 297.667 287.333 C 290.488 291.73 282.004 293.497 273.667 292.333 L 273.667 166.667 Z " fill-rule="evenodd" fill="rgb(66,133,244)"/></g></svg>